REM DIRINDEX 1\2,1\3
REM DIRNAME cjc039,folder01,folder02
TITLE ""
FILE "3481-3500.mp3" MP3
  TRACK 01 AUDIO
    TITLE "0:"
    INDEX 01 00:00:00
  TRACK 02 AUDIO
    TITLE "2:cjc039_5961"
    INDEX 01 00:00:25
  TRACK 03 AUDIO
    TITLE "0:"
    INDEX 01 00:01:42
  TRACK 04 AUDIO
    TITLE "3:cjc039_5962"
    INDEX 01 00:02:26
  TRACK 05 AUDIO
    TITLE "0:"
    INDEX 01 00:06:02
  TRACK 06 AUDIO
    TITLE "2:cjc039_5963"
    INDEX 01 00:07:51
  TRACK 07 AUDIO
    TITLE "0:"
    INDEX 01 00:09:20
  TRACK 08 AUDIO
    TITLE "3:cjc039_5964"
    INDEX 01 00:09:67
  TRACK 09 AUDIO
    TITLE "0:"
    INDEX 01 00:13:32
  TRACK 10 AUDIO
    TITLE "2:cjc039_5965"
    INDEX 01 00:15:09
  TRACK 11 AUDIO
    TITLE "0:"
    INDEX 01 00:16:42
  TRACK 12 AUDIO
    TITLE "3:cjc039_5966"
    INDEX 01 00:17:21
  TRACK 13 AUDIO
    TITLE "0:"
    INDEX 01 00:20:43
  TRACK 14 AUDIO
    TITLE "2:cjc039_5967"
    INDEX 01 00:22:19
  TRACK 15 AUDIO
    TITLE "0:"
    INDEX 01 00:23:20
  TRACK 16 AUDIO
    TITLE "3:cjc039_5968"
    INDEX 01 00:24:02
  TRACK 17 AUDIO
    TITLE "0:"
    INDEX 01 00:27:02
  TRACK 18 AUDIO
    TITLE "2:cjc039_5969"
    INDEX 01 00:28:55
  TRACK 19 AUDIO
    TITLE "0:"
    INDEX 01 00:30:03
  TRACK 20 AUDIO
    TITLE "3:cjc039_5970"
    INDEX 01 00:30:55
  TRACK 21 AUDIO
    TITLE "0:"
    INDEX 01 00:33:60
  TRACK 22 AUDIO
    TITLE "2:cjc039_5971"
    INDEX 01 00:35:31
  TRACK 23 AUDIO
    TITLE "0:"
    INDEX 01 00:37:08
  TRACK 24 AUDIO
    TITLE "3:cjc039_5972"
    INDEX 01 00:37:56
  TRACK 25 AUDIO
    TITLE "0:"
    INDEX 01 00:41:53
  TRACK 26 AUDIO
    TITLE "2:cjc039_5973"
    INDEX 01 00:43:31
  TRACK 27 AUDIO
    TITLE "0:"
    INDEX 01 00:44:56
  TRACK 28 AUDIO
    TITLE "3:cjc039_5974"
    INDEX 01 00:45:33
  TRACK 29 AUDIO
    TITLE "0:"
    INDEX 01 00:48:63
  TRACK 30 AUDIO
    TITLE "2:cjc039_5975"
    INDEX 01 00:50:41
  TRACK 31 AUDIO
    TITLE "0:"
    INDEX 01 00:52:47
  TRACK 32 AUDIO
    TITLE "3:cjc039_5976"
    INDEX 01 00:53:29
  TRACK 33 AUDIO
    TITLE "0:"
    INDEX 01 00:57:29
  TRACK 34 AUDIO
    TITLE "2:cjc039_5977"
    INDEX 01 00:59:10
  TRACK 35 AUDIO
    TITLE "0:"
    INDEX 01 01:00:45
  TRACK 36 AUDIO
    TITLE "3:cjc039_5978"
    INDEX 01 01:01:23
  TRACK 37 AUDIO
    TITLE "0:"
    INDEX 01 01:05:01
  TRACK 38 AUDIO
    TITLE "2:cjc039_5979"
    INDEX 01 01:06:53
  TRACK 39 AUDIO
    TITLE "0:"
    INDEX 01 01:08:33
  TRACK 40 AUDIO
    TITLE "3:cjc039_5980"
    INDEX 01 01:09:14
  TRACK 41 AUDIO
    TITLE "0:"
    INDEX 01 01:13:04
  TRACK 42 AUDIO
    TITLE "2:cjc039_5981"
    INDEX 01 01:14:61
  TRACK 43 AUDIO
    TITLE "0:"
    INDEX 01 01:16:05
  TRACK 44 AUDIO
    TITLE "3:cjc039_5982"
    INDEX 01 01:16:60
  TRACK 45 AUDIO
    TITLE "0:"
    INDEX 01 01:20:65
  TRACK 46 AUDIO
    TITLE "2:cjc039_5983"
    INDEX 01 01:22:41
  TRACK 47 AUDIO
    TITLE "0:"
    INDEX 01 01:23:56
  TRACK 48 AUDIO
    TITLE "3:cjc039_5984"
    INDEX 01 01:24:24
  TRACK 49 AUDIO
    TITLE "0:"
    INDEX 01 01:28:39
  TRACK 50 AUDIO
    TITLE "2:cjc039_5985"
    INDEX 01 01:30:17
  TRACK 51 AUDIO
    TITLE "0:"
    INDEX 01 01:31:38
  TRACK 52 AUDIO
    TITLE "3:cjc039_5986"
    INDEX 01 01:32:10
  TRACK 53 AUDIO
    TITLE "0:"
    INDEX 01 01:35:69
  TRACK 54 AUDIO
    TITLE "2:cjc039_5987"
    INDEX 01 01:37:46
  TRACK 55 AUDIO
    TITLE "0:"
    INDEX 01 01:38:73
  TRACK 56 AUDIO
    TITLE "3:cjc039_5988"
    INDEX 01 01:39:53
  TRACK 57 AUDIO
    TITLE "0:"
    INDEX 01 01:43:05
  TRACK 58 AUDIO
    TITLE "2:cjc039_5989"
    INDEX 01 01:44:62
  TRACK 59 AUDIO
    TITLE "0:"
    INDEX 01 01:46:18
  TRACK 60 AUDIO
    TITLE "3:cjc039_5990"
    INDEX 01 01:46:70
  TRACK 61 AUDIO
    TITLE "0:"
    INDEX 01 01:50:17
  TRACK 62 AUDIO
    TITLE "2:cjc039_5991"
    INDEX 01 01:51:70
  TRACK 63 AUDIO
    TITLE "0:"
    INDEX 01 01:53:51
  TRACK 64 AUDIO
    TITLE "3:cjc039_5992"
    INDEX 01 01:54:29
  TRACK 65 AUDIO
    TITLE "0:"
    INDEX 01 01:58:21
  TRACK 66 AUDIO
    TITLE "2:cjc039_5993"
    INDEX 01 01:59:69
  TRACK 67 AUDIO
    TITLE "0:"
    INDEX 01 02:00:65
  TRACK 68 AUDIO
    TITLE "3:cjc039_5994"
    INDEX 01 02:01:41
  TRACK 69 AUDIO
    TITLE "0:"
    INDEX 01 02:03:71
  TRACK 70 AUDIO
    TITLE "2:cjc039_5995"
    INDEX 01 02:05:50
  TRACK 71 AUDIO
    TITLE "0:"
    INDEX 01 02:07:12
  TRACK 72 AUDIO
    TITLE "3:cjc039_5996"
    INDEX 01 02:07:63
  TRACK 73 AUDIO
    TITLE "0:"
    INDEX 01 02:12:31
  TRACK 74 AUDIO
    TITLE "2:cjc039_5997"
    INDEX 01 02:14:12
  TRACK 75 AUDIO
    TITLE "0:"
    INDEX 01 02:15:31
  TRACK 76 AUDIO
    TITLE "3:cjc039_5998"
    INDEX 01 02:16:07
  TRACK 77 AUDIO
    TITLE "0:"
    INDEX 01 02:19:19
  TRACK 78 AUDIO
    TITLE "2:cjc039_5999"
    INDEX 01 02:20:71
  TRACK 79 AUDIO
    TITLE "0:"
    INDEX 01 02:22:43
  TRACK 80 AUDIO
    TITLE "3:cjc039_6000"
    INDEX 01 02:23:23
  TRACK 81 AUDIO
    TITLE "0:"
    INDEX 01 02:27:54
